--40003LOG 11:54:08:027894600 Waiting for file /home/seluser/videos/vid_chrome_or_firefox_40003* to be created...
Won't start video recording due to VIDEO env var false
ffmpeg version 2.8.15-0ubuntu0.16.04.1 Copyright (c) 2000-2018 the FFmpeg developers
  built with gcc 5.4.0 (Ubuntu 5.4.0-6ubuntu1~16.04.10) 20160609
  configuration: --prefix=/usr --extra-version=0ubuntu0.16.04.1 --build-suffix=-ffmpeg --toolchain=hardened --libdir=/usr/lib/x86_64-linux-gnu --incdir=/usr/include/x86_64-linux-gnu --cc=cc --cxx=g++ --enable-gpl --enable-shared --disable-stripping --disable-decoder=libopenjpeg --disable-decoder=libschroedinger --enable-avresample --enable-avisynth --enable-gnutls --enable-ladspa --enable-libass --enable-libbluray --enable-libbs2b --enable-libcaca --enable-libcdio --enable-libflite --enable-libfontconfig --enable-libfreetype --enable-libfribidi --enable-libgme --enable-libgsm --enable-libmodplug --enable-libmp3lame --enable-libopenjpeg --enable-libopus --enable-libpulse --enable-librtmp --enable-libschroedinger --enable-libshine --enable-libsnappy --enable-libsoxr --enable-libspeex --enable-libssh --enable-libtheora --enable-libtwolame --enable-libvorbis --enable-libvpx --enable-libwavpack --enable-libwebp --enable-libx265 --enable-libxvid --enable-libzvbi --enable-openal --enable-opengl --enable-x11grab --enable-libdc1394 --enable-libiec61883 --enable-libzmq --enable-frei0r --enable-libx264 --enable-libopencv
  libavutil      54. 31.100 / 54. 31.100
  libavcodec     56. 60.100 / 56. 60.100
  libavformat    56. 40.101 / 56. 40.101
  libavdevice    56.  4.100 / 56.  4.100
  libavfilter     5. 40.101 /  5. 40.101
  libavresample   2.  1.  0 /  2.  1.  0
  libswscale      3.  1.101 /  3.  1.101
  libswresample   1.  2.101 /  1.  2.101
  libpostproc    53.  3.100 / 53.  3.100
Input #0, x11grab, from ':83.0':
  Duration: N/A, start: 1556013248.326684, bitrate: N/A
    Stream #0:0: Video: rawvideo (BGR[0] / 0x524742), bgr0, 1920x1080, 29.97 fps, 29.97 tbr, 1000k tbn, 29.97 tbc
[libx264 @ 0xf4c160] using cpu capabilities: MMX2 SSE2Fast SSSE3 SSE4.2 AVX FMA3 AVX2 LZCNT BMI2
[libx264 @ 0xf4c160] profile Constrained Baseline, level 4.0
[libx264 @ 0xf4c160] 264 - core 148 r2643 5c65704 - H.264/MPEG-4 AVC codec - Copyleft 2003-2015 - http://www.videolan.org/x264.html - options: cabac=0 ref=1 deblock=0:0:0 analyse=0:0 me=dia subme=0 psy=1 psy_rd=1.00:0.00 mixed_ref=0 me_range=16 chroma_me=1 trellis=0 8x8dct=0 cqm=0 deadzone=21,11 fast_pskip=1 chroma_qp_offset=0 threads=3 lookahead_threads=1 sliced_threads=0 nr=0 decimate=1 interlaced=0 bluray_compat=0 constrained_intra=0 bframes=0 weightp=0 keyint=250 keyint_min=10 scenecut=0 intra_refresh=0 rc=crf mbtree=0 crf=23.0 qcomp=0.60 qpmin=0 qpmax=69 qpstep=4 ip_ratio=1.40 aq=0
Output #0, matroska, to '/home/seluser/videos/vid_chrome_or_firefox_40003.mkv':
  Metadata:
    encoder         : Lavf56.40.101
    Stream #0:0: Video: h264 (libx264) (H264 / 0x34363248), yuv420p, 1920x1080, q=-1--1, 10 fps, 1k tbn, 10 tbc
    Metadata:
      encoder         : Lavc56.60.100 libx264
Stream mapping:
  Stream #0:0 -> #0:0 (rawvideo (native) -> h264 (libx264))
Press [q] to stop, [?] for help
frame=    3 fps=0.0 q=0.0 size=       1kB time=00:00:00.00 bitrate=N/A    
frame=    5 fps=3.4 q=10.0 size=      30kB time=00:00:00.10 bitrate=2491.0kbits/s    
frame=    6 fps=2.5 q=8.0 size=      61kB time=00:00:00.40 bitrate=1244.9kbits/s    
frame=   10 fps=3.4 q=8.0 size=      81kB time=00:00:02.60 bitrate= 253.9kbits/s    
frame=   15 fps=4.3 q=9.0 size=      81kB time=00:00:03.30 bitrate= 201.5kbits/s dup=0 drop=3    
frame=   21 fps=5.0 q=9.0 size=      81kB time=00:00:03.90 bitrate= 171.0kbits/s dup=0 drop=6    
frame=   24 fps=5.1 q=9.0 size=      82kB time=00:00:04.20 bitrate= 160.1kbits/s dup=0 drop=6    
frame=   27 fps=5.1 q=9.0 size=      88kB time=00:00:04.70 bitrate= 153.1kbits/s dup=0 drop=6    
frame=   32 fps=5.6 q=9.0 size=      88kB time=00:00:05.50 bitrate= 131.6kbits/s dup=0 drop=6    
frame=   36 fps=5.7 q=9.0 size=      89kB time=00:00:06.00 bitrate= 120.9kbits/s dup=0 drop=6    
frame=   41 fps=5.8 q=10.0 size=      89kB time=00:00:06.60 bitrate= 110.2kbits/s dup=0 drop=8    
frame=   45 fps=5.9 q=8.0 size=      92kB time=00:00:07.20 bitrate= 104.9kbits/s dup=0 drop=8    
frame=   50 fps=6.1 q=8.0 size=      95kB time=00:00:07.90 bitrate=  98.3kbits/s dup=0 drop=9    
frame=   56 fps=6.4 q=9.0 size=      95kB time=00:00:08.60 bitrate=  90.7kbits/s dup=0 drop=9    
frame=   59 fps=6.3 q=8.0 size=      95kB time=00:00:08.90 bitrate=  87.7kbits/s dup=0 drop=9    
frame=   63 fps=6.4 q=8.0 size=      99kB time=00:00:09.60 bitrate=  84.6kbits/s dup=0 drop=9    
frame=   69 fps=6.6 q=9.0 size=      99kB time=00:00:10.30 bitrate=  79.1kbits/s dup=0 drop=9    
frame=   71 fps=6.5 q=9.0 size=     100kB time=00:00:10.50 bitrate=  77.7kbits/s dup=0 drop=9    
frame=   76 fps=6.5 q=9.0 size=     106kB time=00:00:11.30 bitrate=  76.6kbits/s dup=0 drop=10    
frame=   81 fps=6.6 q=9.0 size=     106kB time=00:00:12.00 bitrate=  72.6kbits/s dup=0 drop=10    
frame=   87 fps=6.8 q=9.0 size=     106kB time=00:00:12.60 bitrate=  69.2kbits/s dup=0 drop=11    
frame=   93 fps=6.9 q=9.0 size=     108kB time=00:00:13.20 bitrate=  66.7kbits/s dup=0 drop=12    
frame=   99 fps=7.1 q=9.0 size=     108kB time=00:00:13.80 bitrate=  64.0kbits/s dup=0 drop=12    
frame=  103 fps=7.1 q=14.0 size=     108kB time=00:00:14.20 bitrate=  62.2kbits/s dup=0 drop=14    
frame=  108 fps=7.2 q=10.0 size=     157kB time=00:00:14.80 bitrate=  86.6kbits/s dup=0 drop=21    
frame=  114 fps=7.3 q=9.0 size=     159kB time=00:00:15.40 bitrate=  84.4kbits/s dup=0 drop=29    
frame=  119 fps=7.4 q=9.0 size=     159kB time=00:00:15.90 bitrate=  81.8kbits/s dup=0 drop=30    
frame=  124 fps=7.5 q=9.0 size=     159kB time=00:00:16.40 bitrate=  79.4kbits/s dup=0 drop=32    
frame=  130 fps=7.6 q=9.0 size=     160kB time=00:00:17.00 bitrate=  76.9kbits/s dup=0 drop=32    
frame=  134 fps=7.6 q=9.0 size=     160kB time=00:00:17.40 bitrate=  75.1kbits/s dup=0 drop=36    
frame=  139 fps=7.6 q=9.0 size=     165kB time=00:00:18.00 bitrate=  74.9kbits/s dup=0 drop=37    
frame=  144 fps=7.7 q=9.0 size=     165kB time=00:00:18.50 bitrate=  72.9kbits/s dup=0 drop=40    
--40003LOG 11:54:27:253825900 Trapped SIGTERM or SIGINT so shutting down ffmpeg gracefully...
--40003LOG 11:54:27:301358300 Will kill VID_TOOL_PID=1091 ...
frame=  144 fps=7.6 q=-1.0 Lsize=     165kB time=00:00:18.90 bitrate=  71.4kbits/s dup=0 drop=41    
video:163kB audio:0kB subtitle:0kB other streams:0kB global headers:0kB muxing overhead: 1.014897%
[libx264 @ 0xf4c160] frame I:1     Avg QP:20.00  size: 29823
[libx264 @ 0xf4c160] frame P:143   Avg QP: 8.99  size:   955
[libx264 @ 0xf4c160] mb I  I16..4: 100.0%  0.0%  0.0%
[libx264 @ 0xf4c160] mb P  I16..4:  1.8%  0.0%  0.0%  P16..4:  0.3%  0.0%  0.0%  0.0%  0.0%    skip:97.8%
[libx264 @ 0xf4c160] coded y,uvDC,uvAC intra: 4.9% 3.6% 3.4% inter: 0.1% 0.1% 0.1%
[libx264 @ 0xf4c160] i16 v,h,dc,p: 89% 10%  1%  0%
[libx264 @ 0xf4c160] i8c dc,h,v,p: 92%  7%  1%  0%
[libx264 @ 0xf4c160] kb/s:70.44
Exiting normally, received signal 2.
--40003LOG 11:54:28:337145100 Tried to kill -SIGTERM VID_TOOL_PID=1091
--40003LOG 11:54:28:360441200 Waiting up to 6s for VID_TOOL_PID=1091 to end with SIGTERM...
--40003LOG 11:54:28:397255500 wait_pid successfully managed to SIGTERM:VID_TOOL_PID=1091 within less than 6s
--40003LOG 11:54:28:411470100 Will try to fix the videos...
--40003LOG 11:54:29:030177700 Fixing perms for /home/seluser/videos/vid_chrome_or_firefox_40003.mkv*
--40003LOG 11:54:29:129874800 Changing video encoding from mkv to mp4...
--40003LOG 11:54:34:172037700 Conversion from mkv to mp4 succeeded!
--40003LOG 11:54:34:178668000 Cleaning up /home/seluser/videos/vid_chrome_or_firefox_40003.mkv ...
--40003LOG 11:54:34:188511600 Optimizing /home/seluser/videos/vid_chrome_or_firefox_40003.mp4 for HTTP streaming...
--40003LOG 11:54:34:226294600 Succeeded to mp4box_retry.sh within 8s
--40003LOG 11:54:34:234373400 ffmpeg shutdown complete.
